<svg id="Ebene_1" data-name="Ebene 1" xmlns="http://www.w3.org/2000/svg" viewBox="0 0 26.41 29.39"><defs><style>.cls-1,.cls-2,.cls-3{fill:none;stroke:#1d1d1b;stroke-miterlimit:10;}.cls-1{stroke-width:0.35px;}.cls-2{stroke-width:0.13px;}.cls-3{stroke-width:0.18px;}.cls-4{font-size:3.82px;fill:#1d1d1b;font-family:Modern_Sans_Light;}</style></defs><ellipse class="cls-1" cx="13.2" cy="12.14" rx="11.91" ry="11.96"/><ellipse class="cls-2" cx="13.2" cy="12.14" rx="11.33" ry="11.38"/><path class="cls-3" d="M6.61,18.93" transform="translate(-1.95 -0.83)"/><polyline class="cls-3" points="11.79 18.36 6.1 18.36 6.1 16.83"/><line class="cls-3" x1="10.73" y1="13.04" x2="4.66" y2="13.04"/><line class="cls-3" x1="10.67" y1="11.73" x2="4.66" y2="11.73"/><line class="cls-3" x1="6.1" y1="7.48" x2="6.1" y2="11.73"/><polyline class="cls-3" points="6.1 13.04 6.1 16.83 11.79 16.81"/><path class="cls-3" d="M21,6.87" transform="translate(-1.95 -0.83)"/><path class="cls-3" d="M17.88,11.56" transform="translate(-1.95 -0.83)"/><path class="cls-3" d="M14.57,6.87" transform="translate(-1.95 -0.83)"/><path class="cls-3" d="M18,12" transform="translate(-1.95 -0.83)"/><path class="cls-3" d="M7.33,6.87" transform="translate(-1.95 -0.83)"/><path class="cls-3" d="M6.61,19.18" transform="translate(-1.95 -0.83)"/><path class="cls-3" d="M21.46,19.18" transform="translate(-1.95 -0.83)"/><path class="cls-3" d="M21.46,6.87" transform="translate(-1.95 -0.83)"/><polyline class="cls-3" points="4.66 18.36 4.66 7.48 11.79 7.48 14.71 11.73 21.61 6.05 21.61 18.36"/><polyline class="cls-3" points="16.11 10.59 12.8 5.9 4.68 5.88"/><path class="cls-3" d="M6.63,6.51" transform="translate(-1.95 -0.83)"/><path class="cls-3" d="M17.72,11.3" transform="translate(-1.95 -0.83)"/><path class="cls-3" d="M16.65,12.55" transform="translate(-1.95 -0.83)"/><path class="cls-3" d="M21.88,19.18" transform="translate(-1.95 -0.83)"/><path class="cls-3" d="M21.88,10.43" transform="translate(-1.95 -0.83)"/><line class="cls-3" x1="15.59" y1="13.04" x2="21.61" y2="8.39"/><path class="cls-3" d="M16.65,12.55" transform="translate(-1.95 -0.83)"/><path class="cls-3" d="M21.46,19.77" transform="translate(-1.95 -0.83)"/><line class="cls-3" x1="19.74" y1="18.35" x2="19.74" y2="9.84"/><text class="cls-4" transform="translate(0 28.58)">Everland Media</text></svg>