<svg id="Ebene_1" data-name="Ebene 1" xmlns="http://www.w3.org/2000/svg" viewBox="0 0 30 30"><defs><style>.cls-1,.cls-2,.cls-3{fill:none;stroke:#1d1d1b;stroke-miterlimit:10;}.cls-1{stroke-width:0.35px;}.cls-2{stroke-width:0.13px;}.cls-3{stroke-width:0.18px;}.cls-4{font-size:3.82px;fill:#1d1d1b;font-family:Modern_Sans_Light;}</style></defs><ellipse class="cls-1" cx="15.15" cy="12.96" rx="11.91" ry="11.96"/><ellipse class="cls-2" cx="15.15" cy="12.96" rx="11.33" ry="11.38"/><polyline class="cls-3" points="13.74 19.18 8.05 19.18 8.05 17.66"/><line class="cls-3" x1="12.68" y1="13.87" x2="6.61" y2="13.87"/><line class="cls-3" x1="12.61" y1="12.55" x2="6.61" y2="12.55"/><line class="cls-3" x1="8.05" y1="8.31" x2="8.05" y2="12.55"/><polyline class="cls-3" points="8.05 13.87 8.05 17.66 13.74 17.64"/><polyline class="cls-3" points="6.61 19.18 6.61 8.31 13.74 8.31 16.66 12.55 23.55 6.87 23.55 19.18"/><polyline class="cls-3" points="18.06 11.42 14.74 6.73 6.63 6.71"/><line class="cls-3" x1="17.54" y1="13.87" x2="23.55" y2="9.22"/><line class="cls-3" x1="21.69" y1="19.18" x2="21.69" y2="10.66"/><text class="cls-4" transform="translate(1.95 29.4)">Everland Media</text></svg>